<mxfile host="app.diagrams.net" agent="Mozilla/5.0 (Windows NT 10.0; Win64; x64) AppleWebKit/537.36 (KHTML, like Gecko) Chrome/131.0.0.0 Safari/537.36" version="26.0.5">
  <diagram name="Page-1" id="fbrGblQ0Jxa6JTfF2wjv">
    <mxGraphModel dx="794" dy="412" grid="1" gridSize="10" guides="1" tooltips="1" connect="1" arrows="1" fold="1" page="1" pageScale="1" pageWidth="2300" pageHeight="2300" math="0" shadow="0">
      <root>
        <mxCell id="0" />
        <mxCell id="1" parent="0" />
        <mxCell id="SqJxspUXISPDHeBOHrzl-10" value="" style="shape=cylinder3;whiteSpace=wrap;html=1;boundedLbl=1;backgroundOutline=1;size=15;rotation=90;" vertex="1" parent="1">
          <mxGeometry x="315" y="305" width="180" height="210" as="geometry" />
        </mxCell>
        <mxCell id="SqJxspUXISPDHeBOHrzl-1" value="Processor" style="rounded=1;whiteSpace=wrap;html=1;" vertex="1" parent="1">
          <mxGeometry x="360" y="120" width="120" height="60" as="geometry" />
        </mxCell>
        <mxCell id="SqJxspUXISPDHeBOHrzl-4" style="edgeStyle=orthogonalEdgeStyle;rounded=0;orthogonalLoop=1;jettySize=auto;html=1;entryX=0;entryY=0.5;entryDx=0;entryDy=0;" edge="1" parent="1" source="SqJxspUXISPDHeBOHrzl-2" target="SqJxspUXISPDHeBOHrzl-1">
          <mxGeometry relative="1" as="geometry" />
        </mxCell>
        <mxCell id="SqJxspUXISPDHeBOHrzl-2" value="Publisher" style="rounded=1;whiteSpace=wrap;html=1;" vertex="1" parent="1">
          <mxGeometry x="100" y="120" width="120" height="60" as="geometry" />
        </mxCell>
        <mxCell id="SqJxspUXISPDHeBOHrzl-3" value="DB" style="shape=cylinder3;whiteSpace=wrap;html=1;boundedLbl=1;backgroundOutline=1;size=15;" vertex="1" parent="1">
          <mxGeometry x="640" y="110" width="60" height="80" as="geometry" />
        </mxCell>
        <mxCell id="SqJxspUXISPDHeBOHrzl-5" style="edgeStyle=orthogonalEdgeStyle;rounded=0;orthogonalLoop=1;jettySize=auto;html=1;entryX=0;entryY=0.5;entryDx=0;entryDy=0;entryPerimeter=0;" edge="1" parent="1" source="SqJxspUXISPDHeBOHrzl-1" target="SqJxspUXISPDHeBOHrzl-3">
          <mxGeometry relative="1" as="geometry" />
        </mxCell>
        <mxCell id="SqJxspUXISPDHeBOHrzl-6" value="Problems" style="text;html=1;align=center;verticalAlign=middle;resizable=0;points=[];autosize=1;strokeColor=none;fillColor=none;" vertex="1" parent="1">
          <mxGeometry x="810" y="40" width="70" height="30" as="geometry" />
        </mxCell>
        <mxCell id="SqJxspUXISPDHeBOHrzl-21" style="edgeStyle=orthogonalEdgeStyle;rounded=0;orthogonalLoop=1;jettySize=auto;html=1;" edge="1" parent="1" source="SqJxspUXISPDHeBOHrzl-7" target="SqJxspUXISPDHeBOHrzl-11">
          <mxGeometry relative="1" as="geometry" />
        </mxCell>
        <mxCell id="SqJxspUXISPDHeBOHrzl-7" value="App-1" style="rounded=1;whiteSpace=wrap;html=1;" vertex="1" parent="1">
          <mxGeometry x="75" y="280" width="120" height="60" as="geometry" />
        </mxCell>
        <mxCell id="SqJxspUXISPDHeBOHrzl-19" style="edgeStyle=orthogonalEdgeStyle;rounded=0;orthogonalLoop=1;jettySize=auto;html=1;entryX=0;entryY=0.5;entryDx=0;entryDy=0;" edge="1" parent="1" source="SqJxspUXISPDHeBOHrzl-8" target="SqJxspUXISPDHeBOHrzl-16">
          <mxGeometry relative="1" as="geometry" />
        </mxCell>
        <mxCell id="SqJxspUXISPDHeBOHrzl-8" value="App-2" style="rounded=1;whiteSpace=wrap;html=1;" vertex="1" parent="1">
          <mxGeometry x="75" y="370" width="120" height="60" as="geometry" />
        </mxCell>
        <mxCell id="SqJxspUXISPDHeBOHrzl-20" style="edgeStyle=orthogonalEdgeStyle;rounded=0;orthogonalLoop=1;jettySize=auto;html=1;entryX=0.089;entryY=0.6;entryDx=0;entryDy=0;entryPerimeter=0;" edge="1" parent="1" source="SqJxspUXISPDHeBOHrzl-9" target="SqJxspUXISPDHeBOHrzl-13">
          <mxGeometry relative="1" as="geometry">
            <mxPoint x="270" y="480" as="targetPoint" />
          </mxGeometry>
        </mxCell>
        <mxCell id="SqJxspUXISPDHeBOHrzl-9" value="App-3" style="rounded=1;whiteSpace=wrap;html=1;" vertex="1" parent="1">
          <mxGeometry x="75" y="455" width="120" height="60" as="geometry" />
        </mxCell>
        <mxCell id="SqJxspUXISPDHeBOHrzl-22" style="edgeStyle=orthogonalEdgeStyle;rounded=0;orthogonalLoop=1;jettySize=auto;html=1;" edge="1" parent="1" source="SqJxspUXISPDHeBOHrzl-10" target="SqJxspUXISPDHeBOHrzl-15">
          <mxGeometry relative="1" as="geometry" />
        </mxCell>
        <mxCell id="SqJxspUXISPDHeBOHrzl-11" value="app-1" style="rounded=1;whiteSpace=wrap;html=1;" vertex="1" parent="1">
          <mxGeometry x="320" y="340" width="85" height="30" as="geometry" />
        </mxCell>
        <mxCell id="SqJxspUXISPDHeBOHrzl-12" value="Cg-2" style="rounded=1;whiteSpace=wrap;html=1;" vertex="1" parent="1">
          <mxGeometry x="590" y="410" width="120" height="50" as="geometry" />
        </mxCell>
        <mxCell id="SqJxspUXISPDHeBOHrzl-13" value="app-3" style="rounded=1;whiteSpace=wrap;html=1;" vertex="1" parent="1">
          <mxGeometry x="350" y="460" width="90" height="30" as="geometry" />
        </mxCell>
        <mxCell id="SqJxspUXISPDHeBOHrzl-14" value="Kadka cluster" style="text;html=1;align=center;verticalAlign=middle;resizable=0;points=[];autosize=1;strokeColor=none;fillColor=none;" vertex="1" parent="1">
          <mxGeometry x="330" y="275" width="100" height="30" as="geometry" />
        </mxCell>
        <mxCell id="SqJxspUXISPDHeBOHrzl-15" value="Cg-1" style="rounded=1;whiteSpace=wrap;html=1;" vertex="1" parent="1">
          <mxGeometry x="590" y="280" width="120" height="60" as="geometry" />
        </mxCell>
        <mxCell id="SqJxspUXISPDHeBOHrzl-16" value="app-2" style="rounded=1;whiteSpace=wrap;html=1;" vertex="1" parent="1">
          <mxGeometry x="357.5" y="400" width="95" height="40" as="geometry" />
        </mxCell>
        <mxCell id="SqJxspUXISPDHeBOHrzl-17" value="cg-3" style="rounded=1;whiteSpace=wrap;html=1;" vertex="1" parent="1">
          <mxGeometry x="600" y="515" width="120" height="60" as="geometry" />
        </mxCell>
        <mxCell id="SqJxspUXISPDHeBOHrzl-23" value="" style="endArrow=classic;html=1;rounded=0;entryX=0;entryY=0.5;entryDx=0;entryDy=0;" edge="1" parent="1" target="SqJxspUXISPDHeBOHrzl-12">
          <mxGeometry width="50" height="50" relative="1" as="geometry">
            <mxPoint x="550" y="410" as="sourcePoint" />
            <mxPoint x="430" y="370" as="targetPoint" />
          </mxGeometry>
        </mxCell>
        <mxCell id="SqJxspUXISPDHeBOHrzl-24" value="" style="endArrow=classic;html=1;rounded=0;entryX=0;entryY=0.25;entryDx=0;entryDy=0;" edge="1" parent="1" target="SqJxspUXISPDHeBOHrzl-17">
          <mxGeometry width="50" height="50" relative="1" as="geometry">
            <mxPoint x="550" y="410" as="sourcePoint" />
            <mxPoint x="430" y="370" as="targetPoint" />
          </mxGeometry>
        </mxCell>
        <mxCell id="SqJxspUXISPDHeBOHrzl-25" value="scalbilty problem solution and pace macthing problem,througput problem,message loss(durability and retention period)" style="text;html=1;align=center;verticalAlign=middle;resizable=0;points=[];autosize=1;strokeColor=none;fillColor=none;" vertex="1" parent="1">
          <mxGeometry x="37.5" y="230" width="650" height="30" as="geometry" />
        </mxCell>
        <mxCell id="SqJxspUXISPDHeBOHrzl-26" value="structured logs" style="text;html=1;align=center;verticalAlign=middle;resizable=0;points=[];autosize=1;strokeColor=none;fillColor=none;" vertex="1" parent="1">
          <mxGeometry x="60" y="638" width="100" height="30" as="geometry" />
        </mxCell>
        <mxCell id="SqJxspUXISPDHeBOHrzl-27" value="unstructred logs" style="text;html=1;align=center;verticalAlign=middle;resizable=0;points=[];autosize=1;strokeColor=none;fillColor=none;" vertex="1" parent="1">
          <mxGeometry x="35" y="908" width="110" height="30" as="geometry" />
        </mxCell>
        <mxCell id="SqJxspUXISPDHeBOHrzl-28" value="Huge right operations are sharded based on appids" style="text;html=1;align=center;verticalAlign=middle;resizable=0;points=[];autosize=1;strokeColor=none;fillColor=none;" vertex="1" parent="1">
          <mxGeometry x="40" y="568" width="300" height="30" as="geometry" />
        </mxCell>
        <mxCell id="SqJxspUXISPDHeBOHrzl-29" value="Flink(aggregate to file)" style="rounded=1;whiteSpace=wrap;html=1;" vertex="1" parent="1">
          <mxGeometry x="260" y="1010" width="120" height="60" as="geometry" />
        </mxCell>
        <mxCell id="SqJxspUXISPDHeBOHrzl-30" value="Map reduce" style="rounded=1;whiteSpace=wrap;html=1;" vertex="1" parent="1">
          <mxGeometry x="540" y="1010" width="120" height="60" as="geometry" />
        </mxCell>
        <mxCell id="SqJxspUXISPDHeBOHrzl-31" value="real time aggregation" style="text;html=1;align=center;verticalAlign=middle;resizable=0;points=[];autosize=1;strokeColor=none;fillColor=none;" vertex="1" parent="1">
          <mxGeometry x="250" y="958" width="140" height="30" as="geometry" />
        </mxCell>
        <mxCell id="SqJxspUXISPDHeBOHrzl-32" value="batch processing of those aggregated files(every 5 minuts)" style="text;html=1;align=center;verticalAlign=middle;resizable=0;points=[];autosize=1;strokeColor=none;fillColor=none;" vertex="1" parent="1">
          <mxGeometry x="410" y="958" width="340" height="30" as="geometry" />
        </mxCell>
        <mxCell id="SqJxspUXISPDHeBOHrzl-33" style="edgeStyle=orthogonalEdgeStyle;rounded=0;orthogonalLoop=1;jettySize=auto;html=1;entryX=0.067;entryY=0.522;entryDx=0;entryDy=0;entryPerimeter=0;" edge="1" parent="1" source="SqJxspUXISPDHeBOHrzl-29" target="SqJxspUXISPDHeBOHrzl-30">
          <mxGeometry relative="1" as="geometry">
            <Array as="points">
              <mxPoint x="440" y="1041" />
              <mxPoint x="440" y="1041" />
            </Array>
          </mxGeometry>
        </mxCell>
        <mxCell id="SqJxspUXISPDHeBOHrzl-34" value="Flink can de-serialize based on schema&amp;nbsp;" style="rounded=1;whiteSpace=wrap;html=1;" vertex="1" parent="1">
          <mxGeometry x="470" y="680" width="120" height="60" as="geometry" />
        </mxCell>
        <mxCell id="SqJxspUXISPDHeBOHrzl-35" value="realtimeprocessing" style="text;html=1;align=center;verticalAlign=middle;resizable=0;points=[];autosize=1;strokeColor=none;fillColor=none;" vertex="1" parent="1">
          <mxGeometry x="480" y="650" width="120" height="30" as="geometry" />
        </mxCell>
        <mxCell id="SqJxspUXISPDHeBOHrzl-36" value="" style="endArrow=none;html=1;rounded=0;" edge="1" parent="1">
          <mxGeometry width="50" height="50" relative="1" as="geometry">
            <mxPoint x="410" y="1120" as="sourcePoint" />
            <mxPoint x="410" y="920" as="targetPoint" />
          </mxGeometry>
        </mxCell>
        <mxCell id="SqJxspUXISPDHeBOHrzl-37" value="preprocessing stage" style="text;html=1;align=center;verticalAlign=middle;resizable=0;points=[];autosize=1;strokeColor=none;fillColor=none;" vertex="1" parent="1">
          <mxGeometry x="260" y="908" width="130" height="30" as="geometry" />
        </mxCell>
        <mxCell id="SqJxspUXISPDHeBOHrzl-38" value="" style="shape=cylinder3;whiteSpace=wrap;html=1;boundedLbl=1;backgroundOutline=1;size=15;rotation=90;" vertex="1" parent="1">
          <mxGeometry x="245" y="643" width="70" height="140" as="geometry" />
        </mxCell>
        <mxCell id="SqJxspUXISPDHeBOHrzl-39" value="Hpertable" style="shape=cylinder3;whiteSpace=wrap;html=1;boundedLbl=1;backgroundOutline=1;size=15;" vertex="1" parent="1">
          <mxGeometry x="710" y="643" width="60" height="80" as="geometry" />
        </mxCell>
        <mxCell id="SqJxspUXISPDHeBOHrzl-40" value="reading the whole log files" style="text;html=1;align=center;verticalAlign=middle;resizable=0;points=[];autosize=1;strokeColor=none;fillColor=none;" vertex="1" parent="1">
          <mxGeometry x="770" y="668" width="160" height="30" as="geometry" />
        </mxCell>
        <mxCell id="SqJxspUXISPDHeBOHrzl-41" value="Distributed&amp;nbsp; inerted search indexe" style="shape=cylinder3;whiteSpace=wrap;html=1;boundedLbl=1;backgroundOutline=1;size=15;" vertex="1" parent="1">
          <mxGeometry x="710" y="760" width="60" height="80" as="geometry" />
        </mxCell>
        <mxCell id="SqJxspUXISPDHeBOHrzl-42" value="searching in log files" style="text;html=1;align=center;verticalAlign=middle;resizable=0;points=[];autosize=1;strokeColor=none;fillColor=none;" vertex="1" parent="1">
          <mxGeometry x="785" y="798" width="130" height="30" as="geometry" />
        </mxCell>
        <mxCell id="SqJxspUXISPDHeBOHrzl-43" value="NullPointerException : {line1,line2}" style="text;html=1;align=center;verticalAlign=middle;resizable=0;points=[];autosize=1;strokeColor=none;fillColor=none;" vertex="1" parent="1">
          <mxGeometry x="780" y="840" width="210" height="30" as="geometry" />
        </mxCell>
        <mxCell id="SqJxspUXISPDHeBOHrzl-48" style="edgeStyle=orthogonalEdgeStyle;rounded=0;orthogonalLoop=1;jettySize=auto;html=1;entryX=0;entryY=0;entryDx=0;entryDy=0;" edge="1" parent="1" source="SqJxspUXISPDHeBOHrzl-44" target="SqJxspUXISPDHeBOHrzl-34">
          <mxGeometry relative="1" as="geometry" />
        </mxCell>
        <mxCell id="SqJxspUXISPDHeBOHrzl-44" value="schema registry" style="rounded=1;whiteSpace=wrap;html=1;" vertex="1" parent="1">
          <mxGeometry x="240" y="650" width="80" height="38" as="geometry" />
        </mxCell>
        <mxCell id="SqJxspUXISPDHeBOHrzl-46" value="kafka" style="text;html=1;align=center;verticalAlign=middle;resizable=0;points=[];autosize=1;strokeColor=none;fillColor=none;" vertex="1" parent="1">
          <mxGeometry x="255" y="758" width="50" height="30" as="geometry" />
        </mxCell>
        <mxCell id="SqJxspUXISPDHeBOHrzl-47" style="edgeStyle=orthogonalEdgeStyle;rounded=0;orthogonalLoop=1;jettySize=auto;html=1;entryX=0.067;entryY=0.544;entryDx=0;entryDy=0;entryPerimeter=0;" edge="1" parent="1" source="SqJxspUXISPDHeBOHrzl-38" target="SqJxspUXISPDHeBOHrzl-34">
          <mxGeometry relative="1" as="geometry" />
        </mxCell>
        <mxCell id="SqJxspUXISPDHeBOHrzl-49" value="give it to flink" style="text;html=1;align=center;verticalAlign=middle;resizable=0;points=[];autosize=1;strokeColor=none;fillColor=none;" vertex="1" parent="1">
          <mxGeometry x="355" y="628" width="90" height="30" as="geometry" />
        </mxCell>
        <mxCell id="SqJxspUXISPDHeBOHrzl-50" value="{&lt;div&gt;&lt;br&gt;&lt;/div&gt;&lt;div&gt;&quot;name&quot;:&quot;sai&quot;,&lt;/div&gt;&lt;div&gt;&quot;age&quot;:&quot;23&quot;&lt;/div&gt;&lt;div&gt;&lt;br&gt;&lt;/div&gt;&lt;div&gt;}&lt;/div&gt;" style="text;html=1;align=center;verticalAlign=middle;resizable=0;points=[];autosize=1;strokeColor=none;fillColor=none;" vertex="1" parent="1">
          <mxGeometry x="70" y="668" width="90" height="100" as="geometry" />
        </mxCell>
        <mxCell id="SqJxspUXISPDHeBOHrzl-51" value="fixed schema of log" style="text;html=1;align=center;verticalAlign=middle;resizable=0;points=[];autosize=1;strokeColor=none;fillColor=none;" vertex="1" parent="1">
          <mxGeometry x="50" y="768" width="130" height="30" as="geometry" />
        </mxCell>
        <mxCell id="SqJxspUXISPDHeBOHrzl-52" value="Use protobuf,avro formats" style="text;html=1;align=center;verticalAlign=middle;resizable=0;points=[];autosize=1;strokeColor=none;fillColor=none;" vertex="1" parent="1">
          <mxGeometry x="85" y="870" width="160" height="30" as="geometry" />
        </mxCell>
        <mxCell id="SqJxspUXISPDHeBOHrzl-53" value="{sai,23}" style="text;html=1;align=center;verticalAlign=middle;resizable=0;points=[];autosize=1;strokeColor=none;fillColor=none;" vertex="1" parent="1">
          <mxGeometry x="380" y="710" width="60" height="30" as="geometry" />
        </mxCell>
        <mxCell id="SqJxspUXISPDHeBOHrzl-54" style="edgeStyle=orthogonalEdgeStyle;rounded=0;orthogonalLoop=1;jettySize=auto;html=1;entryX=0.59;entryY=0.948;entryDx=0;entryDy=0;entryPerimeter=0;" edge="1" parent="1" source="SqJxspUXISPDHeBOHrzl-50" target="SqJxspUXISPDHeBOHrzl-38">
          <mxGeometry relative="1" as="geometry" />
        </mxCell>
      </root>
    </mxGraphModel>
  </diagram>
</mxfile>
